<mxfile host="app.diagrams.net" modified="2023-05-25T08:11:41.231Z" agent="Mozilla/5.0 (Windows NT 10.0; Win64; x64) AppleWebKit/537.36 (KHTML, like Gecko) Chrome/113.0.0.0 Safari/537.36" version="21.3.3" etag="0S8nbUQBircsbHn6HADE" type="github">
  <diagram name="Page-1" id="8bxU0z9DKvlWG2gmm4zv">
    <mxGraphModel>
      <root>
        <mxCell id="0" />
        <mxCell id="1" parent="0" />
      </root>
    </mxGraphModel>
  </diagram>
</mxfile>
